<?xml version="1.0" standalone="no"?>
<!DOCTYPE svg PUBLIC "-//W3C//DTD SVG 20010904//EN"
 "http://www.w3.org/TR/2001/REC-SVG-20010904/DTD/svg10.dtd">
<svg version="1.0" xmlns="http://www.w3.org/2000/svg"
 width="700.000000pt" height="700.000000pt" viewBox="0 0 700.000000 700.000000"
 preserveAspectRatio="xMidYMid meet">
<metadata>
Created by potrace 1.11, written by Peter Selinger 2001-2013
</metadata>
<g transform="translate(0.000000,700.000000) scale(0.100000,-0.100000)"
fill="#000000" stroke="none">
<path d="M3445 6979 c-11 -6 -30 -24 -41 -42 -29 -45 22 38 -1549 -2532 -779
-1276 -1441 -2358 -1469 -2405 -29 -47 -79 -128 -111 -180 -97 -159 -129 -211
-182 -296 -69 -111 -88 -165 -87 -244 0 -72 30 -150 78 -207 71 -84 636 -408
956 -547 318 -139 772 -293 1035 -351 371 -82 626 -124 890 -145 180 -14 533
-27 635 -23 202 8 481 25 550 34 41 5 111 14 155 19 225 28 663 118 845 174
25 8 99 31 165 51 512 159 1098 438 1528 727 71 48 120 120 142 209 28 112 14
147 -180 464 -37 61 -86 142 -110 180 -45 76 -187 307 -1620 2650 -922 1507
-1122 1835 -1210 1980 -23 39 -73 120 -110 180 -37 61 -86 141 -109 179 -62
105 -95 136 -142 135 -22 0 -48 -5 -59 -10z m181 -506 c65 -109 164 -276 222
-372 73 -122 100 -177 93 -184 -14 -14 -192 -13 -256 2 -27 6 -80 23 -117 38
l-67 26 -88 -31 c-48 -17 -121 -36 -162 -42 -76 -11 -187 -4 -197 12 -3 5 46
95 109 201 63 106 156 262 207 347 117 198 119 200 129 200 5 0 62 -89 127
-197z m-33 -750 c80 -23 110 -27 232 -27 100 0 157 4 198 16 l58 16 24 -36
c13 -21 499 -813 1079 -1762 802 -1312 1052 -1728 1044 -1737 -16 -20 -280
-193 -393 -258 -1289 -743 -2867 -826 -4235 -223 -231 102 -471 235 -695 385
-160 107 -152 99 -135 126 7 12 63 103 124 202 60 99 138 227 174 285 35 58
90 148 122 200 113 187 1722 2815 1724 2817 1 1 29 -5 61 -14 120 -34 404 -17
485 28 23 13 34 11 133 -18z m2966 -4054 c112 -182 207 -344 213 -359 17 -49
-10 -91 -94 -145 -417 -270 -950 -525 -1328 -633 -19 -6 -64 -19 -100 -30
-454 -139 -769 -201 -1290 -253 -136 -14 -784 -14 -920 0 -276 28 -438 50
-680 95 -94 17 -147 30 -325 77 -66 17 -137 35 -157 40 -131 31 -494 163 -718
261 -382 167 -896 460 -921 526 -16 41 -6 67 69 192 39 63 94 153 122 200 28
47 71 117 95 155 24 39 60 98 80 133 20 34 40 62 44 62 4 0 32 -17 62 -38 299
-208 664 -402 1005 -535 107 -42 334 -119 419 -142 366 -99 626 -146 965 -175
58 -5 238 -9 400 -9 527 0 852 44 1365 184 82 23 351 113 400 135 22 9 69 29
105 43 288 114 696 338 895 492 39 30 75 55 81 55 6 0 102 -149 213 -331z"/>
<path d="M3410 5243 c-55 -10 -171 -75 -219 -123 -95 -95 -146 -249 -123 -372
66 -353 484 -491 735 -243 168 165 172 435 8 608 -101 107 -254 156 -401 130z"/>
<path d="M2534 4145 c-238 -52 -388 -287 -333 -524 50 -218 270 -368 486 -332
147 25 264 113 331 249 36 74 37 81 37 182 0 101 -1 108 -37 182 -64 130 -170
215 -305 243 -81 17 -100 17 -179 0z"/>
<path d="M4284 4145 c-238 -52 -388 -287 -333 -524 50 -218 270 -368 486 -332
147 25 264 113 331 249 36 74 37 81 37 182 0 101 -1 108 -37 182 -64 130 -170
215 -305 243 -81 17 -100 17 -179 0z"/>
<path d="M1857 2940 c-95 -24 -201 -102 -255 -187 -38 -60 -72 -170 -72 -232
0 -168 103 -327 258 -398 219 -101 471 -8 574 213 25 54 32 83 36 158 4 79 1
100 -21 164 -42 122 -132 216 -249 263 -60 24 -209 34 -271 19z"/>
<path d="M4925 2941 c-118 -31 -235 -126 -284 -232 -46 -95 -57 -182 -36 -277
22 -100 55 -159 126 -227 170 -163 425 -164 594 -4 71 67 109 134 130 233 15
68 16 89 6 146 -27 149 -115 268 -246 330 -61 29 -81 34 -165 36 -52 2 -108 0
-125 -5z"/>
<path d="M3375 2607 c-74 -25 -129 -59 -185 -116 -61 -62 -91 -116 -115 -206
-19 -74 -19 -113 0 -194 38 -160 166 -288 325 -325 82 -20 121 -20 195 -1 233
61 370 269 330 500 -25 140 -114 257 -241 317 -59 28 -80 32 -168 35 -66 2
-115 -2 -141 -10z"/>
</g>
</svg>
